# xmcd
#
# Track frame offsets:
#	150
#	16950
#	47637
#	77892
#	93290
#	104329
#	128261
#	131278
#	145411
#	167556
#	180964
#	187841
#	201024
#	209054
#	222655
#	232420
#	251369
#	266804
#
# Disc length: 3822 seconds
#
# Revision: 2
# Processed by: cddbd v1.5.1PL2 Copyright (c) Steve Scherf et al.
# Submitted via: audiograbber 1.83.01
#
DISCID=fd0eec12
DTITLE=Son House - King Of The Delta Blues
DYEAR=1900
DGENRE=Blues
TTITLE0=Levee Camp Blues
TTITLE1=Government Fleet Blues
TTITLE2=Walking Blues
TTITLE3=Shetland Pony Blues
TTITLE4=Camp Hollers
TTITLE5=Delta Blues
TTITLE6=Special Rider Blues
TTITLE7=Special rider Blues
TTITLE8=Low Down Dirty Dog Blues
TTITLE9=Depot Blues
TTITLE10=Demonstration of Concert Guitar Tuning
TTITLE11=American Defense
TTITLE12=Am I Right Or Wrong
TTITLE13=Walking Blues
TTITLE14=County Farm Blues
TTITLE15=The Pony Blues
TTITLE16=Jinx Blues (no. 1)
TTITLE17=Jinx Blues (no. 2)
EXTD=
EXTT0=
EXTT1=
EXTT2=
EXTT3=
EXTT4=
EXTT5=
EXTT6=
EXTT7=
EXTT8=
EXTT9=
EXTT10=
EXTT11=
EXTT12=
EXTT13=
EXTT14=
EXTT15=
EXTT16=
EXTT17=
PLAYORDER=
